<mxfile host="app.diagrams.net" modified="2023-03-08T05:17:47.426Z" agent="5.0 (X11)" etag="wKD1SknbLUcFUb5qk0mA" version="20.8.0" type="github">
  <diagram id="kgpKYQtTHZ0yAKxKKP6v" name="Page-1">
    <mxGraphModel dx="2010" dy="726" grid="1" gridSize="10" guides="1" tooltips="1" connect="1" arrows="1" fold="1" page="1" pageScale="1" pageWidth="850" pageHeight="1100" math="0" shadow="0">
      <root>
        <mxCell id="0" />
        <mxCell id="1" parent="0" />
        <mxCell id="uv_5s2hipA0R0eZw5zeg-1" value="k3-am6548-iot2050-advanced-pg2.dts" style="rounded=1;whiteSpace=wrap;html=1;fillColor=#dae8fc;strokeColor=#6c8ebf;" vertex="1" parent="1">
          <mxGeometry x="260" y="540" width="120" height="60" as="geometry" />
        </mxCell>
        <mxCell id="uv_5s2hipA0R0eZw5zeg-19" style="edgeStyle=orthogonalEdgeStyle;rounded=0;orthogonalLoop=1;jettySize=auto;html=1;entryX=1;entryY=0.5;entryDx=0;entryDy=0;fontColor=#FFFFFF;" edge="1" parent="1" source="uv_5s2hipA0R0eZw5zeg-3" target="uv_5s2hipA0R0eZw5zeg-1">
          <mxGeometry relative="1" as="geometry">
            <Array as="points">
              <mxPoint x="520" y="510" />
              <mxPoint x="420" y="510" />
              <mxPoint x="420" y="570" />
            </Array>
          </mxGeometry>
        </mxCell>
        <mxCell id="uv_5s2hipA0R0eZw5zeg-24" style="edgeStyle=orthogonalEdgeStyle;rounded=0;orthogonalLoop=1;jettySize=auto;html=1;exitX=0.75;exitY=1;exitDx=0;exitDy=0;entryX=0;entryY=0.5;entryDx=0;entryDy=0;fontColor=#FFFFFF;" edge="1" parent="1" source="uv_5s2hipA0R0eZw5zeg-3" target="uv_5s2hipA0R0eZw5zeg-20">
          <mxGeometry relative="1" as="geometry" />
        </mxCell>
        <mxCell id="uv_5s2hipA0R0eZw5zeg-28" style="edgeStyle=orthogonalEdgeStyle;rounded=0;orthogonalLoop=1;jettySize=auto;html=1;exitX=0.25;exitY=1;exitDx=0;exitDy=0;fontColor=#FFFFFF;" edge="1" parent="1" source="uv_5s2hipA0R0eZw5zeg-3" target="uv_5s2hipA0R0eZw5zeg-26">
          <mxGeometry relative="1" as="geometry">
            <Array as="points">
              <mxPoint x="490" y="670" />
              <mxPoint x="110" y="670" />
            </Array>
          </mxGeometry>
        </mxCell>
        <mxCell id="uv_5s2hipA0R0eZw5zeg-3" value="k3-am6548-iot2050-advanced-common.dtsi" style="rounded=1;whiteSpace=wrap;html=1;" vertex="1" parent="1">
          <mxGeometry x="460" y="390" width="120" height="60" as="geometry" />
        </mxCell>
        <mxCell id="uv_5s2hipA0R0eZw5zeg-17" style="edgeStyle=orthogonalEdgeStyle;rounded=0;orthogonalLoop=1;jettySize=auto;html=1;entryX=0;entryY=0.5;entryDx=0;entryDy=0;fontColor=#FFFFFF;" edge="1" parent="1" source="uv_5s2hipA0R0eZw5zeg-6" target="uv_5s2hipA0R0eZw5zeg-1">
          <mxGeometry relative="1" as="geometry" />
        </mxCell>
        <mxCell id="uv_5s2hipA0R0eZw5zeg-27" style="edgeStyle=orthogonalEdgeStyle;rounded=0;orthogonalLoop=1;jettySize=auto;html=1;exitX=0;exitY=0.5;exitDx=0;exitDy=0;entryX=0.75;entryY=0;entryDx=0;entryDy=0;fontColor=#FFFFFF;" edge="1" parent="1" source="uv_5s2hipA0R0eZw5zeg-6" target="uv_5s2hipA0R0eZw5zeg-26">
          <mxGeometry relative="1" as="geometry" />
        </mxCell>
        <mxCell id="uv_5s2hipA0R0eZw5zeg-6" value="k3-am65-iot2050-common-pg2.dtsi" style="rounded=1;whiteSpace=wrap;html=1;" vertex="1" parent="1">
          <mxGeometry x="190" y="390" width="120" height="60" as="geometry" />
        </mxCell>
        <mxCell id="uv_5s2hipA0R0eZw5zeg-9" style="edgeStyle=orthogonalEdgeStyle;rounded=0;orthogonalLoop=1;jettySize=auto;html=1;entryX=0.5;entryY=0;entryDx=0;entryDy=0;fontColor=#FFFFFF;" edge="1" parent="1" source="uv_5s2hipA0R0eZw5zeg-8" target="uv_5s2hipA0R0eZw5zeg-6">
          <mxGeometry relative="1" as="geometry" />
        </mxCell>
        <mxCell id="uv_5s2hipA0R0eZw5zeg-8" value="k3-am65-iot2050-common-pg2-u-boot.dtsi" style="rounded=1;whiteSpace=wrap;html=1;" vertex="1" parent="1">
          <mxGeometry x="190" y="280" width="120" height="60" as="geometry" />
        </mxCell>
        <mxCell id="uv_5s2hipA0R0eZw5zeg-14" style="edgeStyle=orthogonalEdgeStyle;rounded=0;orthogonalLoop=1;jettySize=auto;html=1;entryX=0;entryY=0.75;entryDx=0;entryDy=0;fontColor=#FFFFFF;" edge="1" parent="1" source="uv_5s2hipA0R0eZw5zeg-11" target="uv_5s2hipA0R0eZw5zeg-3">
          <mxGeometry relative="1" as="geometry" />
        </mxCell>
        <mxCell id="uv_5s2hipA0R0eZw5zeg-11" value="k3-am65-iot2050-common.dtsi" style="rounded=1;whiteSpace=wrap;html=1;" vertex="1" parent="1">
          <mxGeometry x="360" y="280" width="120" height="60" as="geometry" />
        </mxCell>
        <mxCell id="uv_5s2hipA0R0eZw5zeg-15" style="edgeStyle=orthogonalEdgeStyle;rounded=0;orthogonalLoop=1;jettySize=auto;html=1;entryX=0.5;entryY=0;entryDx=0;entryDy=0;fontColor=#FFFFFF;" edge="1" parent="1" source="uv_5s2hipA0R0eZw5zeg-12" target="uv_5s2hipA0R0eZw5zeg-3">
          <mxGeometry relative="1" as="geometry" />
        </mxCell>
        <mxCell id="uv_5s2hipA0R0eZw5zeg-12" value="k3-am65-iot2050-common-u-boot.dtsi" style="rounded=1;whiteSpace=wrap;html=1;" vertex="1" parent="1">
          <mxGeometry x="510" y="280" width="120" height="50" as="geometry" />
        </mxCell>
        <mxCell id="uv_5s2hipA0R0eZw5zeg-16" style="edgeStyle=orthogonalEdgeStyle;rounded=0;orthogonalLoop=1;jettySize=auto;html=1;entryX=1;entryY=0.5;entryDx=0;entryDy=0;fontColor=#FFFFFF;" edge="1" parent="1" source="uv_5s2hipA0R0eZw5zeg-13" target="uv_5s2hipA0R0eZw5zeg-3">
          <mxGeometry x="0.1579" y="30" relative="1" as="geometry">
            <Array as="points">
              <mxPoint x="720" y="380" />
              <mxPoint x="620" y="380" />
              <mxPoint x="620" y="420" />
            </Array>
            <mxPoint as="offset" />
          </mxGeometry>
        </mxCell>
        <mxCell id="uv_5s2hipA0R0eZw5zeg-13" value="k3-am65-iot2050-boot-image.dtsi" style="rounded=1;whiteSpace=wrap;html=1;" vertex="1" parent="1">
          <mxGeometry x="660" y="280" width="120" height="60" as="geometry" />
        </mxCell>
        <mxCell id="uv_5s2hipA0R0eZw5zeg-20" value="k3-am6548-iot2050-advanced-dts" style="rounded=1;whiteSpace=wrap;html=1;fillColor=#dae8fc;strokeColor=#6c8ebf;" vertex="1" parent="1">
          <mxGeometry x="600" y="540" width="120" height="60" as="geometry" />
        </mxCell>
        <mxCell id="uv_5s2hipA0R0eZw5zeg-25" style="edgeStyle=orthogonalEdgeStyle;rounded=0;orthogonalLoop=1;jettySize=auto;html=1;entryX=1;entryY=0.5;entryDx=0;entryDy=0;fontColor=#FFFFFF;" edge="1" parent="1" source="uv_5s2hipA0R0eZw5zeg-22" target="uv_5s2hipA0R0eZw5zeg-20">
          <mxGeometry relative="1" as="geometry" />
        </mxCell>
        <mxCell id="uv_5s2hipA0R0eZw5zeg-22" value="k3-am65-iot2050-common-pg1.dtsi" style="rounded=1;whiteSpace=wrap;html=1;" vertex="1" parent="1">
          <mxGeometry x="710" y="420" width="120" height="60" as="geometry" />
        </mxCell>
        <mxCell id="uv_5s2hipA0R0eZw5zeg-26" value="k3-am6548-iot2050-advanced-m2.dts" style="rounded=1;whiteSpace=wrap;html=1;fillColor=#dae8fc;strokeColor=#6c8ebf;" vertex="1" parent="1">
          <mxGeometry x="40" y="520" width="120" height="60" as="geometry" />
        </mxCell>
        <mxCell id="uv_5s2hipA0R0eZw5zeg-32" style="edgeStyle=orthogonalEdgeStyle;rounded=0;orthogonalLoop=1;jettySize=auto;html=1;entryX=0;entryY=0.5;entryDx=0;entryDy=0;fontColor=#FFFFFF;dashed=1;" edge="1" parent="1" source="uv_5s2hipA0R0eZw5zeg-29" target="uv_5s2hipA0R0eZw5zeg-26">
          <mxGeometry relative="1" as="geometry" />
        </mxCell>
        <mxCell id="uv_5s2hipA0R0eZw5zeg-29" value="k3-am6548-iot2050-advanced-m2-bkey-ekey-pcie-overlay.dts" style="rounded=1;whiteSpace=wrap;html=1;" vertex="1" parent="1">
          <mxGeometry x="-80" y="390" width="120" height="60" as="geometry" />
        </mxCell>
        <mxCell id="uv_5s2hipA0R0eZw5zeg-33" style="edgeStyle=orthogonalEdgeStyle;rounded=0;orthogonalLoop=1;jettySize=auto;html=1;entryX=0.308;entryY=1;entryDx=0;entryDy=0;entryPerimeter=0;fontColor=#FFFFFF;dashed=1;" edge="1" parent="1" source="uv_5s2hipA0R0eZw5zeg-30" target="uv_5s2hipA0R0eZw5zeg-26">
          <mxGeometry relative="1" as="geometry" />
        </mxCell>
        <mxCell id="uv_5s2hipA0R0eZw5zeg-30" value="k3-am6548-iot2050-advanced-m2-bkey-usb3-overlay.dts" style="rounded=1;whiteSpace=wrap;html=1;" vertex="1" parent="1">
          <mxGeometry x="-160" y="570" width="120" height="60" as="geometry" />
        </mxCell>
        <mxCell id="uv_5s2hipA0R0eZw5zeg-34" style="edgeStyle=orthogonalEdgeStyle;rounded=0;orthogonalLoop=1;jettySize=auto;html=1;fontColor=#FFFFFF;dashed=1;" edge="1" parent="1" source="uv_5s2hipA0R0eZw5zeg-31" target="uv_5s2hipA0R0eZw5zeg-26">
          <mxGeometry relative="1" as="geometry" />
        </mxCell>
        <mxCell id="uv_5s2hipA0R0eZw5zeg-31" value="k3-am6548-iot2050-advanced-m2-bkey-usb3-overlay.dts" style="rounded=1;whiteSpace=wrap;html=1;" vertex="1" parent="1">
          <mxGeometry x="-130" y="700" width="120" height="60" as="geometry" />
        </mxCell>
      </root>
    </mxGraphModel>
  </diagram>
</mxfile>
